<svg
    width="25"
    height="24"
    viewBox="0 0 25 24"
    fill="none"
    xmlns="http://www.w3.org/2000/svg"
  >
    <path
      d="M19.1253 3.41305C17.848 2.86697 16.3738 2.86697 15.0965 3.41305C14.4579 3.6861 13.8777 4.0863 13.3889 4.5908L12.3747 5.63732L11.3605 4.5908C10.3734 3.57223 9.0346 3 7.63861 3C6.24261 3 4.9038 3.57223 3.91668 4.5908C2.92956 5.60938 2.375 6.99086 2.375 8.43134C2.375 13.1851 9.375 18.9995 12.3747 20.9995C15.375 18.9995 20.3645 14.5187 21.9742 10.5099C22.5034 9.19198 22.5034 7.6707 21.9742 6.35275C21.445 5.0348 20.4025 3.95915 19.1253 3.41305Z"
      stroke="#333333"
      stroke-width="2"
      stroke-linecap="round"
      stroke-linejoin="round"
    />
  </svg>